<svg width="14" height="14" viewBox="0 0 14 14" fill="none" xmlns="http://www.w3.org/2000/svg">
<path d="M11.9958 9.12268L10.1576 8.91281C9.7162 8.86216 9.28199 9.01413 8.97081 9.32531L7.63924 10.6569C5.59123 9.61479 3.91229 7.94308 2.8702 5.88782L4.209 4.54901C4.52018 4.23782 4.67216 3.80361 4.6215 3.36217L4.41163 1.53849C4.32479 0.807567 3.70966 0.257568 2.97151 0.257568H1.71955C0.90179 0.257568 0.221532 0.93783 0.27219 1.75559C0.655739 7.93584 5.59847 12.8714 11.7714 13.2549C12.5892 13.3056 13.2695 12.6253 13.2695 11.8075V10.5556C13.2767 9.82465 12.7267 9.20952 11.9958 9.12268Z" fill="#212121"/>
</svg>
